<mxfile host="app.diagrams.net" modified="2021-09-01T10:29:55.019Z" agent="5.0 (Windows NT 10.0; Win64; x64) AppleWebKit/537.36 (KHTML, like Gecko) Chrome/92.0.4515.159 Safari/537.36" etag="43-fotVgxSysARbdPSR_" version="14.6.12" type="github">
  <diagram id="XPhCbYdiqN_p9UUxRNhb" name="Page-1">
    <mxGraphModel dx="774" dy="1032" grid="1" gridSize="10" guides="1" tooltips="1" connect="1" arrows="1" fold="1" page="1" pageScale="1" pageWidth="850" pageHeight="1100" math="0" shadow="0">
      <root>
        <mxCell id="0" />
        <mxCell id="1" parent="0" />
        <mxCell id="_rUrEP9MPJTi1ZQ0gfFT-1" value="Text" style="shape=process;whiteSpace=wrap;html=1;backgroundOutline=1;" vertex="1" parent="1">
          <mxGeometry x="140" y="270" width="320" height="290" as="geometry" />
        </mxCell>
        <mxCell id="_rUrEP9MPJTi1ZQ0gfFT-2" value="Storage" style="shape=cylinder3;whiteSpace=wrap;html=1;boundedLbl=1;backgroundOutline=1;size=15;" vertex="1" parent="1">
          <mxGeometry x="260" y="660" width="60" height="80" as="geometry" />
        </mxCell>
        <mxCell id="_rUrEP9MPJTi1ZQ0gfFT-3" value="" style="endArrow=classic;html=1;" edge="1" parent="1">
          <mxGeometry relative="1" as="geometry">
            <mxPoint x="300" y="570" as="sourcePoint" />
            <mxPoint x="300" y="650" as="targetPoint" />
          </mxGeometry>
        </mxCell>
        <mxCell id="_rUrEP9MPJTi1ZQ0gfFT-4" value="Label" style="edgeLabel;resizable=0;html=1;align=center;verticalAlign=middle;" connectable="0" vertex="1" parent="_rUrEP9MPJTi1ZQ0gfFT-3">
          <mxGeometry relative="1" as="geometry" />
        </mxCell>
      </root>
    </mxGraphModel>
  </diagram>
</mxfile>
